<svg version="1.1" id="Layer_1" xmlns:x="ns_extend;" xmlns:i="ns_ai;" xmlns:graph="ns_graphs;" xmlns="http://www.w3.org/2000/svg" xmlns:xlink="http://www.w3.org/1999/xlink" x="0px" y="0px" viewBox="0 0 292.1 65" style="enable-background:new 0 0 292.1 65;" xml:space="preserve">
 <style type="text/css">
  .st0{fill:#640ACD;}
 </style>
 <metadata>
  <sfw xmlns="ns_sfw;">
   <slices>
   </slices>
   <sliceSourceBounds bottomLeftOrigin="true" height="65" width="292.1" x="-148.3" y="0">
   </sliceSourceBounds>
  </sfw>
 </metadata>
 <g>
  <path class="st0" d="M280.7,31.6c0-2.4,2-4,4.7-4c2.5,0,4,1.2,4,3.2c0,1.8-1.5,2.8-4,3.9l-4.7,2V31.6z M285,46.1
		c2.7,0,5.1-1,6.3-3.2c0.4-0.7,0.3-1.4-0.3-1.8c-0.6-0.4-1.4-0.3-1.7,0.3c-1,1.5-2.4,2.2-4.3,2.2c-2.8,0-4.3-1.4-4.3-4v-0.3l5.5-2.4
		c4.3-1.8,5.8-3,5.8-6.4c0-3.3-2.6-5.4-6.7-5.4s-7.3,2.7-7.3,6.5v8C278.1,43.5,280.8,46.1,285,46.1L285,46.1z M273.9,25.3
		c-3.9,0-6.6,2.8-6.6,7.1v12.1c0,0.7,0.5,1.3,1.3,1.3c0.8,0,1.3-0.6,1.3-1.3V32.4c0-2.6,1.4-4.5,4-4.5c0.4,0,1.1,0.2,1.4,0.2
		c0.7,0,1.2-0.5,1.2-1.2c0-0.6-0.3-1.1-1.1-1.3C274.9,25.4,274.4,25.3,273.9,25.3L273.9,25.3z M251.7,40.4c0-1.8,1.5-2.8,3.9-3.9
		l4.7-2v5c0,2.4-2,4-4.7,4C253.1,43.6,251.7,42.5,251.7,40.4z M256.1,25.1c-2.7,0-5.1,1-6.3,3.2c-0.4,0.7-0.3,1.4,0.3,1.8
		c0.6,0.4,1.4,0.3,1.7-0.3c1-1.5,2.4-2.2,4.3-2.2c2.8,0,4.3,1.4,4.3,4V32l-5.5,2.4c-4.3,1.8-5.8,3-5.8,6.4c0,3.3,2.6,5.4,6.7,5.4
		c4.1,0,7.3-2.7,7.3-6.5v-8C263,27.7,260.3,25.1,256.1,25.1L256.1,25.1z M232.2,37V28c0-3.7,2.8-6.6,6.3-6.6c2.7,0,4.6,1.2,5.8,3.3
		c0.3,0.6,1,0.9,1.7,0.6c0.6-0.3,0.9-1,0.5-1.7c-1.5-3.1-4.3-4.8-8-4.8c-5.1,0-9,3.9-9,9.1V37c0,5.2,4,9.1,9,9.1
		c3.7,0,6.5-1.7,8-4.8c0.3-0.6,0.1-1.4-0.5-1.7c-0.7-0.3-1.4,0-1.7,0.6c-1.1,2.2-3.1,3.3-5.8,3.3C234.9,43.5,232.2,40.7,232.2,37z
		 M210.9,44.7c0,0.5,0.5,1.1,1.3,1.1c0.8,0,1.3-0.6,1.3-1.3V32.5c0-2.6,2.1-4.7,4.7-4.7c2.6,0,4.7,2.1,4.7,4.7v12.1
		c0,0.7,0.5,1.3,1.3,1.3c0.8,0,1.3-0.6,1.3-1.3V32.5c0-3.9-3.1-7.1-7-7.1c-2,0-3.8,0.9-5,2.2v-7.1c0-0.7-0.5-1.3-1.3-1.3
		c-0.8,0-1.3,0.6-1.3,1.5V44.7L210.9,44.7z M202.3,25.5v-5.1c0-0.7-0.5-1.3-1.3-1.3c-0.8,0-1.3,0.6-1.3,1.3v5.1h-3.2
		c-0.7,0-1.2,0.5-1.2,1.2c0,0.7,0.5,1.2,1.2,1.2h3.2v10.8c0,2,0.7,3.8,1.9,5.1c1.3,1.4,3,2,5,2c0.9,0,1.4-0.7,1.4-1.4
		c0-0.7-0.6-1.2-1.3-1.2c-2.9,0-4.3-1.9-4.3-4.6V28h4.4c0.7,0,1.2-0.5,1.2-1.2c0-0.7-0.5-1.2-1.2-1.2H202.3z M196.1,44.9
		c0-0.7-0.5-1.2-1.2-1.3c-1.6-0.2-2.5-1.1-2.5-2.9V20.5c0-0.7-0.5-1.3-1.3-1.3c-0.8,0-1.3,0.6-1.3,1.3v20.1c0,1.5,0.4,2.7,1.2,3.7
		c0.9,1.1,2.2,1.8,3.8,1.8C195.5,46.1,196,45.5,196.1,44.9L196.1,44.9z M173.9,40.4c0-1.8,1.5-2.8,3.9-3.9l4.7-2v5c0,2.4-2,4-4.7,4
		C175.4,43.6,173.9,42.5,173.9,40.4z M178.3,25.1c-2.7,0-5.1,1-6.3,3.2c-0.4,0.7-0.3,1.4,0.3,1.8c0.6,0.4,1.4,0.3,1.7-0.3
		c1-1.5,2.4-2.2,4.3-2.2c2.8,0,4.3,1.4,4.3,4V32l-5.5,2.4c-4.3,1.8-5.8,3-5.8,6.4c0,3.3,2.6,5.4,6.7,5.4c4.1,0,7.3-2.7,7.3-6.5v-8
		C185.2,27.7,182.6,25.1,178.3,25.1L178.3,25.1z M157.1,31.6c0-2.4,2-4,4.7-4c2.5,0,3.9,1.2,3.9,3.2c0,1.8-1.5,2.8-3.9,3.9l-4.7,2
		V31.6z M161.4,46.1c2.7,0,5.1-1,6.3-3.2c0.4-0.7,0.3-1.4-0.3-1.8c-0.6-0.4-1.4-0.3-1.7,0.3c-1,1.5-2.4,2.2-4.3,2.2
		c-2.8,0-4.3-1.4-4.3-4v-0.3l5.5-2.4c4.3-1.8,5.8-3,5.8-6.4c0-3.3-2.6-5.4-6.7-5.4c-4.1,0-7.3,2.7-7.3,6.5v8
		C154.5,43.5,157.2,46.1,161.4,46.1L161.4,46.1z M149.8,44.5V20.5c0-0.8-0.5-1.4-1.4-1.4s-1.4,0.6-1.4,1.4v10.3h-12.2V20.5
		c0-0.8-0.5-1.4-1.4-1.4c-0.9,0-1.4,0.6-1.4,1.4v23.9c0,0.8,0.6,1.4,1.4,1.4c0.8,0,1.4-0.6,1.4-1.4V33.3h12.2v11.2
		c0,0.8,0.5,1.4,1.4,1.4S149.8,45.3,149.8,44.5z M120.4,45.7c0.7,0,1.2-0.5,1.2-1.2c0-0.7-0.5-1.2-1.2-1.2H109v-9.9h10.4
		c0.7,0,1.2-0.5,1.2-1.2c0-0.7-0.5-1.2-1.2-1.2H109v-9.1h11.4c0.7,0,1.2-0.5,1.2-1.2c0-0.7-0.5-1.2-1.2-1.2h-12.7
		c-0.8,0-1.4,0.6-1.4,1.4v23.6c0,0.8,0.5,1.4,1.4,1.4L120.4,45.7L120.4,45.7z M101.5,37v-4.2c0-0.8-0.5-1.4-1.4-1.4h-7.3
		c-0.7,0-1.2,0.5-1.2,1.2c0,0.7,0.5,1.2,1.2,1.2h6V37c0,3.6-2.8,6.6-6.2,6.6c-3.4,0-6.1-2.9-6.1-6.6V28c0-3.7,2.6-6.6,6-6.6
		c2.6,0,4.5,1.2,5.6,3.3c0.3,0.6,1,0.9,1.7,0.6c0.6-0.3,0.9-1,0.5-1.7c-1.5-3.1-4.2-4.8-7.8-4.8c-5,0-8.8,3.9-8.8,9.1V37
		c0,5.1,3.9,9.1,8.9,9.1C97.6,46.1,101.5,41.9,101.5,37L101.5,37z M39.8,24c0-3.7,2.5-7.3,3.9-6.6C45.2,18.2,42.5,21.7,39.8,24z
		 M22.8,25.4c0-3,2.9-8.6,4.7-8C29.6,18.1,25.7,23.8,22.8,25.4z M19.8,46.6c-1.3,0.1-2.2-0.8-2.2-2.2c0-3.9,5.4-7.6,9.4-9.5
		C26.3,40.2,24.4,46.4,19.8,46.6z M44.6,34c-3.1,0-5.4,2.3-5.4,5c0,2.3,1.3,4.1,3.2,4.1c0.6,0,1.3-0.4,1.3-1.2
		c0-1.2-1.6-1.5-1.4-3.2c0.1-1.2,1.2-1.9,2.2-1.9c2.2,0,3.2,2.1,3.2,4.3c-0.1,3.3-2.5,5.6-5.4,5.6c-3.8,0-6.2-3.6-6.2-7.5
		c0-5.8,3.8-8,5.8-8.6c0,0,5.2,0.9,5-1.4c-0.1-1-1.6-1.4-2.6-1.4c-1.2,0-2.4,0.4-2.4,0.4c-0.6-0.3-1.1-0.9-1.3-1.7
		c3.7-2.8,6.3-5.5,6.3-8.6c0-1.6-1.1-3.1-3.2-3.1c-3.7,0-6.5,4.7-6.5,8.9c0,0.7,0,1.4,0.2,2.1c-2.3,1.7-4.1,2.8-7.2,4.7
		c0-0.4,0.1-1.4,0.3-2.7c1.1-1.2,2.6-2.9,2.6-4.3c0-0.6-0.4-1.2-1.1-1.2c-1.8,0-3.1,2.7-3.5,4.6c-0.8,1-2.4,2.3-3.8,2.3
		c-1.1,0-1.4-1-1.5-1.4c3.4-1.2,7.7-5.9,7.7-10.1c0-0.9-0.4-2.9-3.1-2.9c-4.1,0-7.5,6-7.5,10.7c-1.4,0-2-1.5-2-2.7
		c0-1.2,0.5-2.3,0.5-2.7c0-0.4-0.2-0.8-0.7-0.8c-1.4,0-2.2,1.8-2.2,3.9c0.1,2.9,2,4.7,4.5,4.9c0.4,1.7,1.9,3.3,3.8,3.3
		c1.2,0,2.6-0.4,3.6-1.3c-0.1,0.6-0.2,1.2-0.3,1.7c-4,2.1-6.8,3.5-9.5,5.9c-2.1,1.9-3.2,4.4-3.2,6.4c0,2.7,1.7,5.2,5.2,5.2
		c4.1,0,7.3-3.3,8.8-7.9c0.7-2.2,1-5.3,1.2-8.2c4.1-2.3,6.1-3.7,8.3-5.2c0.3,0.5,0.5,0.8,0.9,1.1c-1.9,1-6.4,3.8-6.4,10.4
		c0,4.7,3.2,9.9,9.4,9.9c5.1,0,8.6-4.2,8.6-8.3C50.6,37.4,48.5,34,44.6,34L44.6,34z M60,41.8c0,0-0.1,0.1-0.2,0
		c-0.1,0-0.1-0.1-0.1-0.1c0-0.1,1.1-3.3,1.1-6.9c0-4-1.6-6.4-3.7-6.4c-1.3,0-2.2,0.9-2.2,2.3c0,2.4,3,2.6,3,7.9
		c0,2.2-0.5,4.2-1.2,6.5c-3.3,11.3-14,16.5-24.3,16.5c-4.8,0-8.2-1-9.2-1.4c0,0-0.1-0.1,0-0.2c0-0.1,0.1-0.1,0.1-0.1
		c0.4,0.2,3.3,1.1,6.9,1.1c4,0,6.3-1.6,6.3-3.6c0-1.3-1-2.2-2.3-2.2c-2.4,0-2.6,3.1-7.8,3.1c-2.3,0-4.2-0.4-6.6-1.2
		C8.8,53.5,3.5,42.9,3.5,32.5c0-5.1,1.4-9.1,1.5-9.2c0,0,0.1-0.1,0.2,0c0.1,0,0.1,0.1,0.1,0.1c-0.1,0.4-1.1,3.3-1.1,6.9
		c0,4,1.6,6.3,3.7,6.3c1.2,0,2.2-0.9,2.2-2.2c0-2.4-3-2.7-3-7.9c0-2.3,0.5-4.2,1.2-6.6c3.4-11.2,14-16.4,24.3-16.5
		c4.8,0,9,1.4,9.2,1.5c0,0,0.1,0.1,0,0.2c0,0.1-0.1,0.1-0.1,0.1c-0.1,0-2.8-1.2-6.9-1.2c-3.9,0-6.3,1.6-6.3,3.7
		c0,1.2,0.9,2.2,2.2,2.2c2.4,0,2.6-3,7.8-3c2.3,0,4.2,0.5,6.6,1.2c11.3,3.4,16.4,14,16.5,24.3C61.5,37.8,60.1,41.7,60,41.8L60,41.8z
		 M32.5,1.5c-17.1,0-31,13.9-31,31c0,17.1,13.9,31,31,31c17.1,0,31-13.9,31-31C63.5,15.4,49.6,1.5,32.5,1.5z M32.5,65
		C14.6,65,0,50.5,0,32.5C0,14.5,14.6,0,32.5,0C50.4,0,65,14.6,65,32.5C65,50.4,50.4,65,32.5,65L32.5,65z">
  </path>
 </g>
</svg>