<?xml version="1.0" encoding="utf-8"?>
<!-- Generator: Adobe Illustrator 26.0.3, SVG Export Plug-In . SVG Version: 6.00 Build 0)  -->
<svg version="1.0" id="katman_1" xmlns="http://www.w3.org/2000/svg" xmlns:xlink="http://www.w3.org/1999/xlink" x="0px" y="0px"
	 viewBox="0 0 600 450" style="enable-background:new 0 0 600 450;" xml:space="preserve">
<style type="text/css">
	.st0{fill-rule:evenodd;clip-rule:evenodd;fill:#010202;}
	.st1{fill-rule:evenodd;clip-rule:evenodd;fill:#FFFFFF;}
</style>
<path class="st0" d="M370.4,236.3c-1.5-0.9-3-1.6-4.8-1.6h-26.2v4.3H374c1.7,0,3.3-0.7,4.7-1.6v26.2h-87.5c1.5-1.3,2.9-2.8,2.9-4.9
	v-66.6c0-2.1-1.4-3.7-2.9-4.9h87.5v23.7c-1.4-0.9-3-1.6-4.7-1.6h-34.6v5h26.2c1.8,0,3.3-0.6,4.8-1.6L370.4,236.3L370.4,236.3z
	 M454,248.3h-19.4l-3.9,11.4c-0.1,0.4-0.2,0.8-0.2,1.3c0,0.9,0.3,1.8,0.8,2.6h-44.6c1-1,1.7-2.1,2.2-3.4l23.8-64.2
	c0.6-1.6,1.1-3.3,1.1-4.9c0-1.4-0.5-2.7-1.1-3.8h72.1c-0.6,1.3-1.1,2.5-1.1,3.9c0,1.7,0.5,3.3,1.1,4.9l26.3,64.2
	c0.5,1.4,1.3,2.4,2.4,3.4h-55.7c0.4-0.9,0.6-1.9,0.6-2.9c0-0.6-0.1-1.1-0.3-1.6L454,248.3z M209.6,235.5v23.1c0,2.1,1.3,3.6,2.8,4.9
	h-52.8c1.5-1.3,2.8-2.8,2.8-4.9v-66.4c0-2.1-1.4-3.6-2.8-5h52.8c-1.5,1.3-2.8,2.8-2.8,5v23l15.3-23c0.4-0.7,0.8-1.5,0.8-2.4
	c0-0.9-0.4-1.8-0.8-2.6H277c-2.2,1.2-4.2,2.9-5.6,5l-18.3,26.6l25.2,39.9c1.3,2.1,3.2,3.7,5.4,4.9h-60.7c0.4-0.6,1-1.3,1-2.1
	c0-1-0.5-2-1-2.8L209.6,235.5z M86.7,187.2h54.1c-1.5,1.3-2.8,2.8-2.8,4.9v66.5c0,2.1,1.3,3.6,2.8,4.9H86.7c1.5-1.3,2.8-2.8,2.8-4.9
	v-66.5C89.5,190,88.2,188.5,86.7,187.2z"/>
<path class="st1" d="M439.6,232.9h8.6l-4.5-12.2L439.6,232.9z"/>
</svg>
