<svg xmlns="http://www.w3.org/2000/svg" xmlns:xlink="http://www.w3.org/1999/xlink" version="1.2" overflow="visible" preserveAspectRatio="none" viewBox="0 0 74 57.20000076293945" xml:space="preserve" y="0px" x="0px" id="Layer_1_1605807789527" width="72" height="55" style="&#10;"><g transform="translate(1, 1)"><style type="text/css">
	.st0_1605807789527{fill:#FFFFFF;}
</style><path d="M47.3,37.2c-2.2,0.4-3.4,2-3.4,4.9c0,2.9,1.5,4.9,3.9,4.9c1.1,0,2.1-0.4,4.2-1.4V48c-2.5,1.1-4,1.5-6,1.5  c-2.2,0-3.7-0.6-5-1.9c-1.3-1.3-1.9-3-1.9-4.9c0-4.2,3.1-7,7.7-7c3,0,5.1,1.4,5.1,3.4c0,1.3-1,2.2-2.4,2.2c-0.7,0-1.3-0.2-2.1-0.6  V37.2z M36.2,42.8c2-2.5,2.7-3.6,2.7-4.8c0-1.2-1-2.2-2.3-2.2c-0.8,0-1.5,0.4-1.9,0.8v5.2l-3.3,4.4v-10h-3.1L23,44.7v-8.6h-1.8  l-4.7,1.2v1.2l2.6,0.3v10.6h3.3l5-8.2v8.2h3.7L36.2,42.8z M6.5,38.8c0.8-0.1,1.1-0.1,1.5-0.1c2.2,0,3.4,1.4,3.4,4.2  c0,3.2-1.4,4.9-4.1,4.9c-0.2,0-0.4,0-0.7,0V38.8z M6.5,49.2c0.9,0.1,1.7,0.1,2.2,0.1c4.5,0,7.3-2.9,7.3-7.1c0-3.7-2.1-6.3-5-6.3  c-1.2,0-2.1,0.3-4.5,1.7v-1.8H5.2L0,37.4v1.3h2.2v14.8L0.2,54v1.2h8.5l0-1.2l-2.2-0.5V49.2z M31.4,28.2h13V25h-13V28.2z M72,17.7V25  H44.4V0h14.1v2.9h2.9v4.3h6.9v10.5H72z M61.4,8.3v9.5h5.9V8.3H61.4z M45.4,17.7h6.8v-2.6h-6.8V17.7z M45.4,7.2h12V3.9h-12V7.2z   M45.4,8.3l0,5.8l7.8,0v3.6h4.2V8.3H45.4z M45.4,23.9h6.8v-5.2h-6.8V23.9z M53.2,23.9h4.2v-5.2h-4.2V23.9z M58.5,23.9h1.9v-5.2h-1.9  V23.9z M60.4,17.7V8.3h-1.9v9.5H60.4z M58.5,3.9v3.3h1.9V3.9H58.5z M45.4,2.9h12V1h-12V2.9z M67.3,23.9v-5.2h-5.9v5.2H67.3z   M71,18.7h-2.6v5.2H71V18.7z" class="st0_1605807789527" vector-effect="non-scaling-stroke"/></g></svg>