<svg height="29" version="1.1" viewBox="0, 0, 100, 29" width="100" x="0" xmlns="http://www.w3.org/2000/svg" xmlns:xlink="http://www.w3.org/1999/xlink" y="0">
<g id="Layer_1">
<path d="M77.293,0.037 C75.961,0.037 74.938,1.041 74.938,2.392 L74.938,26.308 C74.938,27.609 75.992,28.663 77.293,28.663 L99.99,28.663 L99.99,22.936 L82.207,22.936 L82.207,16.813 L96.956,16.813 L96.956,11.32 L82.207,11.32 L82.207,5.585 L99.79,5.585 L99.79,0.037 z M17.091,13.483 L12.46,13.483 C11.654,13.483 11.153,14.361 11.564,15.055 L20.365,28.663 L29.026,28.663 L21.183,18.059 C24.975,17.565 28.122,15.573 28.122,9.293 C28.122,2.683 25.274,0.037 18.287,0.037 L2.365,0.037 C1.034,0.037 0.01,1.041 0.01,2.392 L0.01,28.663 L7.535,28.663 L7.535,5.484 L17.2,5.484 C20.04,5.484 21.131,6.791 21.131,9.433 C21.131,11.687 19.913,13.483 17.091,13.483 M44.883,27.467 C44.623,28.185 43.941,28.663 43.178,28.663 L38.654,28.663 C37.815,28.663 37.085,28.087 36.891,27.272 L30.381,0.037 L38.091,0.037 L41.67,17.701 L47.296,1.262 C47.547,0.529 48.236,0.037 49.011,0.037 L52.973,0.037 C53.748,0.037 54.437,0.529 54.688,1.262 L60.314,17.701 L63.893,0.037 L71.603,0.037 L65.094,27.272 C64.899,28.087 64.169,28.663 63.33,28.663 L58.807,28.663 C58.043,28.663 57.361,28.185 57.101,27.467 L50.992,10.591 z"></path>
</g>
</svg>